<svg width="24" height="25" viewBox="0 0 24 25" fill="none" xmlns="http://www.w3.org/2000/svg">
<rect y="0.189941" width="24" height="24" rx="12" fill="#E2F5F2"/>
<path d="M17.0391 6.40088C17.1797 6.55713 17.25 6.73682 17.25 6.93994C17.25 7.14307 17.1797 7.32275 17.0391 7.479L6.53906 17.979C6.38281 18.1196 6.20312 18.1899 6 18.1899C5.79688 18.1899 5.61719 18.1196 5.46094 17.979L0.210938 12.729C0.0703125 12.5728 0 12.3931 0 12.1899C0 11.9868 0.0703125 11.8071 0.210938 11.6509C0.367188 11.5103 0.546875 11.4399 0.75 11.4399C0.953125 11.4399 1.13281 11.5103 1.28906 11.6509L6 16.3853L15.9609 6.40088C16.1172 6.26025 16.2969 6.18994 16.5 6.18994C16.7031 6.18994 16.8828 6.26025 17.0391 6.40088Z" fill="#11B196"/>
</svg>
